<svg width="19" height="20" viewBox="0 0 19 20" fill="none" xmlns="http://www.w3.org/2000/svg">
<g id="icon">
<path id="Vector" d="M19 10.1749C19 9.30023 18.9375 8.66193 18.8021 8H10V11.9479H15.1666C15.0625 12.9291 14.5 14.4066 13.25 15.3995L13.2325 15.5316L16.0155 17.9782L16.2083 18C17.9791 16.1442 19 13.4137 19 10.1749Z" fill="#4285F4"/>
<path id="Vector_2" d="M10.1886 20C12.9657 20 15.2971 19.1135 17 17.5845L13.7543 15.1468C12.8857 15.734 11.72 16.144 10.1886 16.144C7.46861 16.144 5.16006 14.4044 4.33712 12L4.2165 12.0099L1.04152 14.3922L1 14.5041C2.69141 17.7617 6.1657 20 10.1886 20Z" fill="#34A853"/>
<path id="Vector_3" d="M5 12.4963C4.75516 11.8759 4.61346 11.2111 4.61346 10.5243C4.61346 9.83737 4.75516 9.17268 4.98712 8.55229L4.98063 8.42016L1.3557 6L1.2371 6.0485C0.45104 7.4001 0 8.9179 0 10.5243C0 12.1307 0.45104 13.6484 1.2371 15L5 12.4963Z" fill="#FBBC05"/>
<path id="Vector_4" d="M10.1494 3.85593C12.0725 3.85593 13.3698 4.66479 14.1095 5.34074L17 2.5928C15.2248 0.986155 12.9146 0 10.1494 0C6.14366 0 2.68419 2.23821 1 5.49581L4.31151 8C5.14231 5.59557 7.44101 3.85593 10.1494 3.85593Z" fill="#EB4335"/>
</g>
</svg>
